<?xml version="1.0" encoding="UTF-8"?>
<svg id="Layer_1" xmlns="http://www.w3.org/2000/svg" version="1.1" viewBox="0 0 64 64">
  <!-- Generator: Adobe Illustrator 29.8.2, SVG Export Plug-In . SVG Version: 2.1.1 Build 3)  -->
  <defs>
    <style>
      .st0 {
        fill: red;
      }
    </style>
  </defs>
  <g id="Layer_4">
    <path class="st0" d="M45.67,3.07c-6.37,0-10.99,3.31-13.67,6.01-2.7-2.7-7.33-6.01-13.7-6.01-10.23,0-18.24,8.39-18.24,19.08C.06,40.54,29.37,59.72,30.64,60.53c.43.28.91.4,1.39.4s.93-.13,1.34-.4c1.26-.78,30.57-19.66,30.57-38.38,0-10.69-8.01-19.08-18.24-19.08,0,0-.03,0-.03,0ZM32,55.35c-5.63-3.92-26.91-19.56-26.91-33.2,0-6.92,4.95-14.02,13.19-14.02,6.19,0,10.23,4.4,11.67,6.32.48.61,1.21.99,2.02.99s1.52-.38,2-.99c1.47-1.92,5.51-6.32,11.67-6.32,8.26,0,13.19,7.13,13.19,14.02,0,13.9-21.23,29.34-26.89,33.2h.06Z"/>
  </g>
  <g id="Layer_3">
    <path class="st0" d="M60.2,21.6c0,14.5-22.14,30.6-28.05,34.63-5.87-4.09-28.07-20.4-28.07-34.63,0-7.22,5.16-14.62,13.76-14.62,6.46,0,10.67,4.59,12.17,6.59.5.64,1.26,1.03,2.11,1.03s1.59-.4,2.09-1.03c1.53-2,5.75-6.59,12.17-6.59,8.59,0,13.76,7.44,13.76,14.62h.06Z"/>
  </g>
</svg>